HIERARCHY
ROOT Hips
{
 OFFSET 0.000000 0.000000 0.000000
 CHANNELS 6 Xposition Yposition Zposition Yrotation Xrotation Zrotation
 JOINT Chest
 {
  OFFSET 0.000000 9.585900 0.002600
  CHANNELS 3 Yrotation Xrotation Zrotation
  JOINT Chest2
  {
   OFFSET 0.000000 9.601200 -0.005300
   CHANNELS 3 Yrotation Xrotation Zrotation
   JOINT Chest3
   {
    OFFSET 0.000000 9.561800 0.000000
    CHANNELS 3 Yrotation Xrotation Zrotation
    JOINT Chest4
    {
     OFFSET 0.000000 9.552100 0.000000
     CHANNELS 3 Yrotation Xrotation Zrotation
     JOINT Neck
     {
      OFFSET 0.000000 14.453000 0.000000
      CHANNELS 3 Yrotation Xrotation Zrotation
      JOINT Head
      {
       OFFSET 0.000000 8.936500 -0.011300
       CHANNELS 3 Yrotation Xrotation Zrotation
       End Site
       {
        OFFSET 0.000000 17.073600 -0.006000
       }
      }
     }
     JOINT RightCollar
     {
      OFFSET -2.921100 9.558500 0.000000
      CHANNELS 3 Yrotation Xrotation Zrotation
      JOINT RightShoulder
      {
       OFFSET -13.519700 0.000000 0.000000
       CHANNELS 3 Yrotation Xrotation Zrotation
       JOINT RightElbow
       {
        OFFSET 0.000000 -29.696600 0.000000
        CHANNELS 3 Yrotation Xrotation Zrotation
        JOINT RightWrist
        {
         OFFSET 0.000000 -24.004700 0.000000
         CHANNELS 3 Yrotation Xrotation Zrotation
         End Site
         {
          OFFSET 0.000000 -17.728500 0.000000
         }
        }
       }
      }
     }
     JOINT LeftCollar
     {
      OFFSET 2.921100 9.558500 0.000000
      CHANNELS 3 Yrotation Xrotation Zrotation
      JOINT LeftShoulder
      {
       OFFSET 13.519700 0.000000 0.000000
       CHANNELS 3 Yrotation Xrotation Zrotation
       JOINT LeftElbow
       {
        OFFSET 0.000000 -29.696600 0.000000
        CHANNELS 3 Yrotation Xrotation Zrotation
        JOINT LeftWrist
        {
         OFFSET 0.000000 -24.004700 0.000000
         CHANNELS 3 Yrotation Xrotation Zrotation
         End Site
         {
          OFFSET 0.000000 -17.728500 0.000000
         }
        }
       }
      }
     }
    }
   }
  }
 }
 JOINT RightHip
 {
  OFFSET -7.771700 -0.012900 -0.001300
  CHANNELS 3 Yrotation Xrotation Zrotation
  JOINT RightKnee
  {
   OFFSET 0.000000 -40.869800 0.001200
   CHANNELS 3 Yrotation Xrotation Zrotation
   JOINT RightAnkle
   {
    OFFSET 0.000000 -39.717900 0.002100
    CHANNELS 3 Yrotation Xrotation Zrotation
    JOINT RightToe
    {
     OFFSET 0.000000 -4.965400 11.033500
     CHANNELS 3 Yrotation Xrotation Zrotation
     End Site
     {
      OFFSET 0.000000 -1.423100 5.872300
     }
    }
   }
  }
 }
 JOINT LeftHip
 {
  OFFSET 7.771700 -0.012900 -0.001300
  CHANNELS 3 Yrotation Xrotation Zrotation
  JOINT LeftKnee
  {
   OFFSET 0.000000 -40.869800 0.001200
   CHANNELS 3 Yrotation Xrotation Zrotation
   JOINT LeftAnkle
   {
    OFFSET 0.000000 -39.717900 0.002100
    CHANNELS 3 Yrotation Xrotation Zrotation
    JOINT LeftToe
    {
     OFFSET 0.000000 -4.965400 11.033500
     CHANNELS 3 Yrotation Xrotation Zrotation
     End Site
     {
      OFFSET 0.000000 -1.423100 5.872300
     }
    }
   }
  }
 }
}
MOTION
Frames: 11
Frame Time: 0.008333
-51.907722 57.886180 11.857210 -179.365295 -54.901631 -3.630818 2.197860 22.087257 2.065355 1.113385 12.627695 1.074863 1.409688 15.783539 1.375703 1.103657 12.628496 1.069740 -1.963309 17.049609 -1.217585 -3.249926 -4.173273 -1.442717 10.247113 0.878306 2.097734 4.395329 -46.286311 5.481123 -61.550226 -2.278220 17.755326 -8.901909 -6.954861 5.111519 -14.706532 -0.132961 -3.712533 -13.771516 -42.685186 2.978213 60.725243 -4.215290 -13.936616 15.400250 -10.350293 -13.116850 4.630027 -16.098864 -3.848976 -32.467138 73.557517 -37.258618 6.253360 -13.735403 12.727333 0.060216 0.120157 0.030601 -7.896041 -14.409723 3.900732 84.870218 82.096717 83.019672 0.435516 -21.421984 -17.700386 -0.053158 0.050369 -0.012728
-51.905868 57.887324 11.849560 -179.335141 -54.902241 -3.656935 2.178450 22.089069 2.059223 1.103730 12.628619 1.069756 1.394563 15.787228 1.369080 1.093742 12.629177 1.064363 -1.936285 17.013621 -1.097782 -3.223967 -4.219309 -1.298193 10.254680 0.908687 2.092673 4.462495 -46.013510 5.187848 -61.750248 -2.123996 18.694096 -8.756249 -6.904460 4.922360 -14.642455 -0.166959 -3.723456 -13.726225 -42.564370 2.963068 60.768019 -4.227721 -14.165901 15.413704 -10.310884 -13.115004 4.582152 -16.093224 -3.810770 -32.553691 73.554413 -37.390857 6.236020 -13.803444 12.746721 0.070841 0.133398 0.029214 -7.880530 -14.406907 3.910974 84.869064 82.095313 83.032692 0.414942 -21.427608 -17.691372 -0.048569 0.051760 -0.006968
-51.905579 57.887989 11.842288 -179.315530 -54.899698 -3.667627 2.158382 22.089990 2.043685 1.081084 12.635864 1.056418 1.395875 15.786292 1.368670 1.105053 12.624570 1.064008 -1.930846 16.984096 -0.980950 -3.195456 -4.265674 -1.158470 10.192626 0.984395 2.077772 4.592750 -45.788066 4.901695 -61.924980 -1.986628 19.602063 -8.615614 -6.858277 4.728475 -14.614028 -0.178506 -3.724289 -13.699849 -42.462551 2.962327 60.836380 -4.251357 -14.409060 15.440554 -10.277070 -13.088307 4.557632 -16.091737 -3.800687 -32.610923 73.561958 -37.472480 6.226660 -13.871071 12.763095 0.069721 0.167945 0.024041 -7.860421 -14.409647 3.914027 84.860260 82.100525 83.036598 0.405124 -21.429119 -17.685846 -0.044630 0.052262 -0.004849
-51.905595 57.888058 11.835662 -179.297530 -54.892959 -3.678408 2.140906 22.092154 2.031831 1.064422 12.638990 1.048986 1.387123 15.785839 1.364127 1.116336 12.619684 1.060924 -1.921771 16.961534 -0.886648 -3.172284 -4.317243 -0.999150 10.130634 1.053394 2.066377 4.741029 -45.566977 4.619383 -62.071977 -1.872439 20.477442 -8.486009 -6.816291 4.519983 -14.585426 -0.198271 -3.725189 -13.699654 -42.398411 2.966988 60.916319 -4.265421 -14.619206 15.475471 -10.248859 -13.038407 4.531658 -16.096165 -3.792935 -32.655960 73.569280 -37.538432 6.213775 -13.932951 12.774815 0.086203 0.168574 0.022767 -7.845461 -14.418437 3.922153 84.880810 82.112038 83.062217 0.398985 -21.431366 -17.677820 -0.043797 0.050211 0.000910
-51.907536 57.888065 11.829249 -179.269876 -54.886559 -3.689327 2.113096 22.094940 2.011754 1.051764 12.640674 1.043008 1.374929 15.787098 1.358761 1.106340 12.622553 1.055482 -1.886243 16.940813 -0.841298 -3.159992 -4.372194 -0.794154 10.107799 1.099231 2.056534 4.881267 -45.343154 4.347599 -62.182226 -1.786068 21.319379 -8.377273 -6.773839 4.298270 -14.542829 -0.211998 -3.723788 -13.723907 -42.269717 2.998388 61.024025 -4.310616 -14.909647 15.516638 -10.225442 -12.978262 4.502505 -16.101769 -3.796732 -32.685413 73.579657 -37.588130 6.204833 -13.974475 12.782768 0.079885 0.106485 0.025035 -7.839086 -14.428772 3.929088 84.917924 82.129909 83.080809 0.394974 -21.433824 -17.647691 -0.057035 0.050085 0.003736
-51.907865 57.887476 11.823713 -179.249365 -54.876313 -3.708054 2.081015 22.105089 1.989510 1.059492 12.629154 1.050205 1.359838 15.791494 1.349886 1.055328 12.632899 1.045894 -1.819728 16.900795 -0.731029 -3.133134 -4.416276 -0.660812 10.125368 1.137137 2.046286 5.016645 -45.134239 4.097404 -62.245162 -1.733750 22.125316 -8.294122 -6.714629 4.077308 -14.467515 -0.233085 -3.723439 -13.746612 -42.164708 3.030553 61.126685 -4.347998 -15.184699 15.562247 -10.203467 -12.921401 4.478984 -16.112323 -3.790162 -32.697675 73.586555 -37.613814 6.202713 -14.009628 12.789578 0.087695 0.087375 0.025815 -7.837113 -14.441515 3.949086 84.942621 82.148878 83.097396 0.385862 -21.433989 -17.627934 -0.059510 0.046833 0.001778
-51.908343 57.884136 11.820425 -179.231783 -54.847230 -3.727347 2.064068 22.086643 1.982877 1.062716 12.622017 1.055231 1.343293 15.799554 1.338459 1.050330 12.633303 1.042367 -1.800770 16.874611 -0.620010 -3.107395 -4.461070 -0.523157 10.088662 1.185853 2.046574 5.134439 -44.942215 3.877208 -62.251479 -1.715686 22.896252 -8.234401 -6.631135 3.863859 -14.451894 -0.244858 -3.711211 -13.745706 -42.049066 3.054744 61.220822 -4.382374 -15.483409 15.605976 -10.181843 -12.867873 4.462991 -16.140803 -3.785457 -32.705121 73.594236 -37.628423 6.202030 -14.067729 12.802087 0.084387 0.091384 0.022263 -7.841566 -14.474084 3.976359 84.981269 82.167977 83.120171 0.379864 -21.436752 -17.605866 -0.058443 0.047617 -0.001421
-51.910578 57.882270 11.816282 -179.222634 -54.830885 -3.733182 2.054904 22.074298 1.976760 1.048781 12.633502 1.041101 1.356346 15.788561 1.347079 1.048789 12.633521 1.041092 -1.793126 16.861340 -0.539065 -3.087626 -4.508820 -0.359931 10.034397 1.244259 2.046482 5.224319 -44.765394 3.687847 -62.185920 -1.720295 23.636217 -8.214163 -6.541302 3.663575 -14.465010 -0.239890 -3.707041 -13.730576 -41.910494 3.091465 61.313546 -4.423555 -15.831199 15.643347 -10.154048 -12.811395 4.448702 -16.155140 -3.785075 -32.708245 73.613460 -37.644539 6.184047 -14.153666 12.828906 0.075963 0.125925 0.005150 -7.844543 -14.492705 3.984918 85.008186 82.176816 83.140027 0.374912 -21.436626 -17.604434 -0.054929 0.045800 -0.001767
-51.913745 57.881868 11.811313 -179.209536 -54.826283 -3.740501 2.046729 22.086484 1.961870 1.037716 12.654181 1.018886 1.361816 15.767997 1.359611 1.044050 12.633736 1.037396 -1.763220 16.838108 -0.450575 -3.069153 -4.557018 -0.196981 9.997008 1.288113 2.055344 5.282978 -44.598109 3.524821 -62.028656 -1.733982 24.345293 -8.256606 -6.463126 3.487072 -14.454714 -0.242957 -3.686157 -13.692765 -41.799595 3.103460 61.384772 -4.454769 -16.173328 15.681055 -10.111772 -12.748623 4.438734 -16.158057 -3.786153 -32.707638 73.633955 -37.654104 6.160454 -14.207490 12.846623 0.073191 0.151942 -0.003858 -7.849353 -14.499890 3.990317 85.036931 82.186875 83.161320 0.368048 -21.431306 -17.611432 -0.053490 0.037676 0.013454
-51.916313 57.879291 11.808136 -179.186599 -54.805773 -3.763032 2.031823 22.086415 1.949246 1.038014 12.655190 1.018117 1.351448 15.778934 1.341874 1.049258 12.623546 1.040537 -1.732363 16.811772 -0.355570 -3.052514 -4.605854 -0.036333 9.987471 1.294110 2.071264 5.270588 -44.406629 3.391766 -61.790473 -1.741921 25.041121 -8.335679 -6.398278 3.319979 -14.442297 -0.247439 -3.656393 -13.633787 -41.682087 3.100144 61.437662 -4.485677 -16.545527 15.727883 -10.056346 -12.675096 4.430340 -16.179584 -3.786910 -32.728462 73.650859 -37.671673 6.154051 -14.244623 12.855414 0.062679 0.133525 -0.003990 -7.867040 -14.528367 4.032609 85.110397 82.236612 83.196164 0.365903 -21.427150 -17.577568 -0.057068 0.030151 0.013066
-51.919754 57.876550 11.805185 -179.175785 -54.784768 -3.774185 2.025918 22.085739 1.939010 1.035540 12.656612 1.014892 1.355349 15.767693 1.347479 1.040729 12.634659 1.030324 -1.707211 16.786494 -0.266985 -3.037263 -4.655795 0.123495 9.971749 1.300382 2.083069 5.225652 -44.216136 3.277877 -61.502396 -1.736556 25.745745 -8.413947 -6.337788 3.140802 -14.429015 -0.260012 -3.635159 -13.558321 -41.548648 3.085200 61.478057 -4.512972 -16.954307 15.784834 -9.989750 -12.584640 4.460348 -16.204003 -3.799952 -32.754159 73.686681 -37.662031 6.136556 -14.304539 12.862338 0.063510 0.132394 -0.004983 -7.877311 -14.553027 4.050902 85.159475 82.253423 83.227808 0.360217 -21.427070 -17.566944 -0.049164 0.029247 0.005835
